<?xml version="1.0" encoding="UTF-8"?><!--MEDITECH wordmark | Source: Brandfetch (brandfetch.com), 2026-04-28 | Verified: 2026-04-28 | Licensing: trademark restrictions apply, see brand verification log--><svg xmlns="http://www.w3.org/2000/svg" xml:space="preserve" viewBox="0 0 442.3 64.4"><path d="M53.6 18.3 33.6 45h-2.3L11.7 18.2V63H.1V1.5h13.4L32.7 28 51.9 1.5h13.3V63H53.6zM122 62.9H76V1.4h46v11.3H87.5v14.2h33.3v10.8H87.5v13.9H122zm63.2-31.3c.3 15.6-9.2 31.3-30.8 31.3h-24.2V1.4h24.2c21.1 0 30.5 15 30.8 30.2m-43.5 20.1h12.7c14 0 19.5-10.2 19.2-20.2-.3-9.6-5.9-19.2-19.2-19.2h-12.7zm52.2 11.2V1.4h11.5v61.5zm41.2-51h-19.5V1.4h50.6v10.5h-19.5v51h-11.6zm84 51H273V1.4h46.1v11.3h-34.5v14.2h33.3v10.8h-33.3v13.9h34.5zm63.2-7.7c-6.3 6.2-14.5 9.1-23.4 9.1-22.9 0-32.5-15.7-32.6-31.7C326.3 16.5 336.7.1 359 .1c8.3 0 16.3 3.2 22.6 9.4l-7.7 7.5c-4-4-9.5-5.8-14.9-5.8-14.9 0-21.3 11.1-21.2 21.4.1 10.2 6 20.8 21.2 20.8 5.4 0 11.4-2.2 15.5-6.2zm48.5 7.8V38.1h-30.2V63H389V1.5h11.6v25.9h30.2V1.5h11.5V63z" style="fill:#00bc6f"/></svg>