<?xml version="1.0" encoding="UTF-8"?><!--Oracle wordmark | Source: Brandfetch (brandfetch.com), 2026-04-28 | Verified: 2026-04-28 | Licensing: trademark restrictions apply, see brand verification log--><svg xmlns="http://www.w3.org/2000/svg" xml:space="preserve" viewBox="0 0 461.6 60"><path d="M199.7 39h30.4L214 13l-29.6 46.9H171l36-56.3c2.7-3.9 8.1-4.8 11.9-2.1.8.6 1.5 1.2 2.1 2l36.1 56.4h-13.4l-6.3-10.5h-30.8zm139.8 10.5V.6h-11.4v53.7c0 1.5.6 3 1.7 4 1.1 1.1 2.6 1.7 4.2 1.7h51.9l6.8-10.5zm-188.9-8.8c11.1 0 20.1-9 20.1-20.1S161.7.5 150.6.5h-49.9v59.4H112V11.1h37.8c5.3 0 9.6 4.3 9.6 9.6s-4.3 9.6-9.6 9.6h-32.2l34.1 29.6h16.6l-22.9-19.2zM30.5 59.9H65c16.4-.4 29.3-14.1 28.9-30.4C93.5 13.7 80.7 1 65 .6H30.5C14.1.2.4 13.1 0 29.5s12.5 30 28.9 30.4c.5.1 1 .1 1.6 0m33.7-10.4h-33c-10.6-.3-18.9-9.2-18.6-19.8.3-10.1 8.5-18.3 18.6-18.6h33c10.6-.3 19.5 8 19.8 18.6s-8 19.5-18.6 19.8zm216.7 10.4h35.2l6.7-10.4h-41.1c-10.6.3-19.5-8-19.8-18.6s8-19.5 18.6-19.8h34.7L322 .6h-41c-16.4-.4-30 12.5-30.4 28.9s12.5 30 28.9 30.4c.4.1.9.1 1.4 0m139.6-10.4c-8.6 0-16.2-5.7-18.5-14h48.8l6.7-10.5H402c2.3-8.3 9.9-14 18.5-14H454L460.7.5h-41c-16.4.5-29.3 14.1-28.9 30.5.4 15.8 13.1 28.5 28.9 28.9h35.2l6.7-10.4z" style="fill:#c74634"/></svg>