<?xml version="1.0" encoding="UTF-8"?><!--ServiceNow wordmark | Source: Brandfetch (brandfetch.com), 2026-04-28 | Verified: 2026-04-28 | Licensing: trademark restrictions apply, see brand verification log--><svg xmlns="http://www.w3.org/2000/svg" xml:space="preserve" id="Layer_1" x="0" y="0" viewBox="0 0 685.1 100"><style>.st0{fill-rule:evenodd;clip-rule:evenodd}</style><path d="M164.9 30.8c-6.9 0-13.6 2.4-18.9 6.8v-6.1h-17.2v67.1h17.9V55.7c3.9-5.1 9.9-8.1 16.3-8.3 2.4-.1 4.9.2 7.2 1.1V31.3c-1.8-.3-3.6-.5-5.3-.5M8.7 78.1c5.1 4.3 11.6 6.7 18.3 6.6 4.8 0 8.5-2.4 8.5-5.7 0-10-32.4-6.4-32.4-28 0-12.9 12.4-20.9 25.6-20.9 8 0 15.9 2.4 22.6 6.8l-8.4 13c-3.7-2.8-8.2-4.4-12.8-4.6-5 0-9.1 1.9-9.1 5.4 0 8.7 32.4 5.3 32.4 28.5 0 12.9-12.6 20.7-26.6 20.7-9.6 0-19-3.2-26.8-8.9zm112.4-13.7c0-18.7-13.1-34.3-31.6-34.3-19.8 0-32.5 16.3-32.5 35-.8 18.5 13.6 34.1 32 34.9h3c10.4.1 20.4-4.2 27.4-12l-10.2-10.2c-4.3 4.8-10.4 7.6-16.8 7.7-9.3.3-17.2-6.7-18.1-15.9h46.3c.4-1.7.5-3.5.5-5.2m-45.9-8c1.3-6.9 7.3-11.8 14.3-11.8 6.7 0 12.4 5.1 13.2 11.8zm137.6 16 18.3-40.9h18.6L219 98.6h-12.4l-30.7-67.1h18.6zm52-72.4c6.4.1 11.4 5.4 11.3 11.7-.1 6.4-5.4 11.4-11.7 11.3s-11.3-5.2-11.3-11.5c0-6.4 5.1-11.5 11.5-11.5z" class="st0"/><path d="M255.8 31.5h17.9v67.1h-17.9z"/><path d="M347.8 84.9c-6.9 9.9-18.3 15.5-30.3 15.1-19.3.5-35.3-14.8-35.8-34s14.8-35.3 34-35.8h1.9c10.9-.1 21.3 4.9 28.1 13.4L333 54.7c-3.6-5-9.3-7.9-15.4-8-9.9 0-18 8-18 17.9v.5c-.3 9.8 7.3 17.9 17.1 18.3h1.4c6.5-.1 12.4-3.4 16-8.8zm65 3c-7 7.8-17 12.2-27.4 12-18.5.9-34.1-13.4-35-31.9v-3c0-18.7 12.7-35 32.5-35 18.5 0 31.6 15.6 31.6 34.3 0 1.7-.1 3.4-.4 5.1h-46.3c.9 9.2 8.8 16.2 18.1 15.9 6.4-.2 12.5-3 16.8-7.7zm-16.6-31.5c-.8-6.7-6.5-11.7-13.2-11.8-7 0-13 4.9-14.3 11.8zm25.4 42.2V31.5h17.2v5.4c5.3-4.4 12-6.8 18.9-6.8 8.9 0 17.4 3.9 23.2 10.8 5.2 6.7 7.6 15.1 6.9 23.5v34.1h-17.9V63c.5-4.6-.9-9.1-4-12.6-2.7-2.5-6.3-3.9-10.1-3.7-6.4.2-12.4 3.2-16.3 8.3v43.6z" class="st0"/><path d="M533.9 30.1c-21.7 0-39.3 17.5-39.3 39.1 0 10.8 4.4 21.2 12.3 28.6 2.8 2.6 7 2.9 10.1.5a27.9 27.9 0 0 1 33.4 0c3.1 2.3 7.4 2.1 10.1-.6 15.7-14.9 16.4-39.7 1.5-55.5-7.4-7.6-17.5-12-28.1-12.1m-.2 58.8c-10.5.3-19.2-8-19.5-18.5v-1c0-10.8 8.7-19.5 19.5-19.5s19.5 8.7 19.5 19.5c.3 10.5-8 19.2-18.5 19.5z" style="fill-rule:evenodd;clip-rule:evenodd;fill:#62d84e"/><path d="M608.2 98.6h-13.4l-26.6-67.1h17.9l14.6 38.3L615 31.5h14.9l14.2 38.3 14.7-38.3h17.9l-26.6 67.1h-13.3l-14.3-38.2z" class="st0"/><path d="M676.9 91h-1.5v2.8h-1.3V86h3.1c1.4 0 2.5 1.1 2.5 2.5 0 1-.6 1.9-1.5 2.3l1.8 3h-1.4zm-1.5-1.1h1.9c.7 0 1.3-.6 1.3-1.3s-.6-1.3-1.3-1.3h-1.8z"/><path d="M676.7 82.9c4 0 7.2 3.2 7.2 7.2s-3.2 7.2-7.2 7.2-7.2-3.2-7.2-7.2 3.2-7.2 7.2-7.2m0-1.2c-4.6 0-8.4 3.7-8.4 8.4s3.7 8.4 8.4 8.4c4.6 0 8.4-3.7 8.4-8.4 0-4.6-3.8-8.4-8.4-8.4"/></svg>