<?xml version="1.0" encoding="UTF-8"?><!--WhatsApp wordmark | Source: Brandfetch (brandfetch.com), 2026-04-28 | Verified: 2026-04-28 | Licensing: trademark restrictions apply, see brand verification log--><svg xmlns="http://www.w3.org/2000/svg" xml:space="preserve" viewBox="0 0 673.62 435"><path d="M96.01 376.88h-.27L78.17 306.1H57.02l-17.86 70.03h-.29l-16.26-69.99H0l27.21 102.82h22.9l17.13-69.99h.27l17.42 69.99h22.46l27.65-102.82h-22.17zm107.98-36.14a20.2 20.2 0 0 0-8.33-6.25 35 35 0 0 0-13.49-2.08c-4.11.06-8.15 1.07-11.8 2.96a23.4 23.4 0 0 0-9.93 9.43H160v-38.76h-20.36v102.82h20.44v-38.97c0-7.58 1.25-13.01 3.75-16.34s6.52-4.95 12.1-4.95c4.89 0 8.33 1.5 10.22 4.54s2.87 7.6 2.87 13.74v42.05h20.44v-45.8c.03-4.23-.38-8.45-1.23-12.59-.65-3.56-2.1-6.9-4.24-9.8m84.21 51.5v-38.68c.2-3.85-.86-7.67-3.02-10.87a20.4 20.4 0 0 0-7.77-6.41 34.6 34.6 0 0 0-10.51-3.1c-3.77-.52-7.56-.78-11.37-.79-4.13 0-8.25.41-12.3 1.23-3.89.76-7.62 2.16-11.03 4.16-3.23 1.89-5.99 4.5-8.06 7.62-2.24 3.6-3.48 7.73-3.6 11.97h20.44c.02-1.64.39-3.27 1.08-4.76.7-1.49 1.7-2.81 2.95-3.88 2.8-1.87 6.13-2.79 9.49-2.6 1.71 0 3.42.11 5.12.35 1.47.21 2.89.7 4.16 1.46 1.22.72 2.22 1.77 2.89 3.02.79 1.63 1.16 3.43 1.08 5.25a5.58 5.58 0 0 1-1.87 4.83c-1.61 1.24-3.48 2.1-5.47 2.52a52 52 0 0 1-7.93 1.29c-2.98.29-6 .69-9.06 1.17-3.1.43-6.18 1.03-9.22 1.79-2.88.75-5.61 1.99-8.08 3.66-2.4 1.77-4.34 4.08-5.66 6.75-1.6 3.23-2.36 6.81-2.23 10.41-.08 3.41.58 6.8 1.94 9.93 1.23 2.7 3.08 5.06 5.39 6.91 2.4 1.87 5.14 3.24 8.08 4.04 3.24.88 6.58 1.31 9.93 1.29 4.59-.01 9.15-.72 13.53-2.08 4.38-1.32 8.35-3.75 11.51-7.06.1 1.24.27 2.47.5 3.68.25 1.19.56 2.36.94 3.52h20.82a17.3 17.3 0 0 1-2.08-6.91c-.4-3.2-.6-6.42-.6-9.64v-.07zm-20.42-12.26c-.03 1.55-.15 3.09-.37 4.62-.26 2-.92 3.94-1.94 5.68a13.4 13.4 0 0 1-4.89 4.83 17.95 17.95 0 0 1-9.37 2.08c-1.59 0-3.18-.14-4.75-.44-1.43-.25-2.8-.76-4.04-1.52a7.7 7.7 0 0 1-2.73-2.94 9.7 9.7 0 0 1-1-4.62c-.06-1.64.28-3.27 1-4.75a9.35 9.35 0 0 1 2.66-3.1c1.18-.85 2.5-1.51 3.89-1.94 1.48-.49 3-.87 4.54-1.14 1.62-.29 3.25-.54 4.87-.73s3.21-.44 4.68-.73c1.41-.26 2.8-.62 4.16-1.08a9.25 9.25 0 0 0 3.25-1.79zm58.58-67.95h-20.44v22.46h-12.39v13.68h12.39v43.93c-.14 3.13.51 6.24 1.87 9.06 1.17 2.22 2.93 4.08 5.1 5.35 2.32 1.3 4.86 2.15 7.49 2.52 2.98.43 5.98.65 8.99.65 2.08 0 4.16 0 6.25-.15 1.93-.08 3.84-.28 5.75-.58v-15.84c-1 .2-2 .35-3.02.44-1.06 0-2.08.15-3.31.15-3.46 0-5.77-.58-6.91-1.73-1.15-1.14-1.73-3.46-1.73-6.91v-36.95h14.97v-13.59H326.4zm84.5 64.14a18.2 18.2 0 0 0-5.33-5.89 28.6 28.6 0 0 0-7.56-3.83c-2.86-.97-5.76-1.78-8.7-2.44-2.87-.67-5.7-1.29-8.49-1.87a68 68 0 0 1-7.41-1.94c-1.92-.59-3.71-1.56-5.27-2.83-.66-.53-1.2-1.21-1.56-1.99-.36-.77-.54-1.62-.52-2.47-.07-1.32.33-2.62 1.14-3.66a7.5 7.5 0 0 1 2.81-2.08c1.17-.5 2.4-.81 3.66-.94 1.35-.12 2.6-.21 3.75-.21 3.29-.07 6.55.65 9.51 2.08 1.39.81 2.54 1.98 3.32 3.39s1.18 3 1.13 4.61h19.42c-.21-4.05-1.42-7.98-3.52-11.45-1.9-2.94-4.43-5.42-7.41-7.27a31 31 0 0 0-10.16-3.89c-3.86-.77-7.79-1.16-11.72-1.15-3.96-.01-7.91.35-11.8 1.08-3.66.64-7.18 1.91-10.41 3.75a20.7 20.7 0 0 0-7.43 7.27c-2 3.6-2.98 7.69-2.81 11.8-.09 2.91.63 5.8 2.08 8.33a17.3 17.3 0 0 0 5.31 5.62c2.34 1.55 4.88 2.76 7.56 3.6 2.83.92 5.75 1.71 8.7 2.37 5.79 1.12 11.5 2.66 17.07 4.6 4.08 1.54 6.12 3.84 6.12 6.91.07 1.61-.38 3.2-1.29 4.54a9.5 9.5 0 0 1-3.25 2.87c-1.34.75-2.8 1.29-4.31 1.58-1.49.34-3.01.51-4.54.52-1.97 0-3.92-.24-5.83-.73-1.78-.44-3.46-1.2-4.98-2.23a11.9 11.9 0 0 1-3.52-3.89c-.95-1.74-1.43-3.7-1.37-5.68h-19.34a23.68 23.68 0 0 0 11.29 20.44c3.39 2.08 7.13 3.55 11.03 4.33 4.16.86 8.41 1.29 12.66 1.29 4.19 0 8.38-.41 12.49-1.23 3.85-.7 7.54-2.11 10.87-4.16a22.63 22.63 0 0 0 10.66-20.3c.11-3.07-.6-6.11-2.06-8.81v-.04zm40.59-70.2-38.87 102.82h22.75l8.06-22.9h38.55l7.77 22.9h23.46l-38.43-102.82zm-2.08 63.08 13.39-37.74h.29L476 369.05zm134.38-24.57a31.05 31.05 0 0 0-10.41-8.78 32.3 32.3 0 0 0-15.2-3.29c-4.38-.05-8.71.88-12.68 2.73a22.6 22.6 0 0 0-9.49 8.78h-.29v-9.43h-19.44V435h20.46v-35.35h.27c2.39 3.58 5.7 6.46 9.58 8.33 3.98 1.9 8.33 2.86 12.74 2.81 4.94.08 9.84-1.02 14.26-3.23 4-2.04 7.49-4.94 10.22-8.49 2.79-3.66 4.87-7.81 6.12-12.24a51.7 51.7 0 0 0 2.08-14.41 57.4 57.4 0 0 0-2.08-15.2c-1.21-4.6-3.29-8.92-6.14-12.74m-13.07 36.14a21.8 21.8 0 0 1-2.96 7.56 15.47 15.47 0 0 1-5.97 5.52 15.5 15.5 0 0 1-7.94 1.76c-2.91.06-5.79-.66-8.33-2.08a16.06 16.06 0 0 1-5.54-5.27 22.5 22.5 0 0 1-3.02-7.56c-.58-2.83-.87-5.71-.85-8.6-.02-3 .27-5.99.85-8.93.51-2.71 1.51-5.3 2.96-7.64 1.37-2.21 3.25-4.06 5.47-5.39 2.53-1.45 5.41-2.17 8.33-2.08 2.92-.11 5.8.62 8.33 2.08a17.2 17.2 0 0 1 5.54 5.45c1.48 2.36 2.53 4.97 3.1 7.7.58 2.9.85 5.85.81 8.81.02 2.92-.24 5.82-.78 8.67m100.71-23.4a36.9 36.9 0 0 0-6.25-12.74 31.05 31.05 0 0 0-10.41-8.78 32.2 32.2 0 0 0-15.13-3.31c-4.37-.05-8.7.88-12.66 2.73a22.6 22.6 0 0 0-9.49 8.78h-.19v-9.41h-19.44V435h20.44v-35.35h.29c2.39 3.58 5.69 6.46 9.57 8.33 3.98 1.89 8.34 2.85 12.74 2.81 4.96.11 9.87-.97 14.32-3.16 4-2.04 7.49-4.94 10.22-8.49 2.79-3.66 4.87-7.81 6.12-12.24 1.38-4.68 2.08-9.53 2.08-14.41a55.6 55.6 0 0 0-2.21-15.27m-19.29 23.4a21.5 21.5 0 0 1-2.94 7.56 17.34 17.34 0 0 1-10.13 6.82c-4.1.97-8.4.42-12.12-1.56a15.95 15.95 0 0 1-5.53-5.27c-1.47-2.31-2.5-4.87-3.04-7.56-.62-2.88-.93-5.82-.92-8.76-.01-3 .28-5.99.85-8.93.51-2.71 1.51-5.3 2.96-7.64 1.37-2.2 3.25-4.05 5.47-5.39 2.53-1.45 5.42-2.17 8.33-2.08 2.92-.1 5.81.62 8.33 2.08a17.3 17.3 0 0 1 5.54 5.45c1.48 2.36 2.53 4.97 3.1 7.7.63 2.89.94 5.85.94 8.81.03 2.94-.24 5.88-.79 8.76h-.05z" style="fill:#25d366"/><path d="M416.59 32.48A112.46 112.46 0 0 0 344.61.22c-27.1-1.71-53.9 6.46-75.45 22.98s-36.39 40.28-41.79 66.9c-5.39 26.61-.97 54.28 12.46 77.89l-15.93 58.19 59.54-15.61a112.1 112.1 0 0 0 53.67 13.68A112.413 112.413 0 0 0 416.55 32.5h.04zm-79.45 172.79c-16.72 0-33.12-4.49-47.51-13.01l-3.41-2.08-35.39 9.26 9.45-34.37-2.21-3.52a93.33 93.33 0 0 1-13.83-58.81 93.3 93.3 0 0 1 25.08-54.96 93.32 93.32 0 0 1 53.48-28.1 93.35 93.35 0 0 1 59.49 10.54 93.35 93.35 0 0 1 40.58 44.76 93.36 93.36 0 0 1-28.52 110.71 93.34 93.34 0 0 1-57.15 19.58zm51.11-69.91c-2.79-1.42-16.65-8.2-19.17-9.14s-4.43-1.39-6.25 1.42c-1.81 2.81-7.24 9.12-8.89 10.99-1.64 1.87-3.27 2.08-6.08.71a77.1 77.1 0 0 1-22.55-13.82 85.1 85.1 0 0 1-15.61-19.44c-1.62-2.81-.17-4.33 1.23-5.72 1.39-1.39 2.81-3.27 4.16-4.91 1.15-1.42 2.09-3 2.79-4.68.38-.77.55-1.63.51-2.49s-.29-1.69-.74-2.43c-.69-1.42-6.25-15.22-8.64-20.82s-4.6-4.73-6.24-4.81-3.5 0-5.37 0c-1.42.04-2.82.37-4.11.98s-2.43 1.47-3.37 2.54a31.5 31.5 0 0 0-7.39 10.55 31.5 31.5 0 0 0-2.54 12.62c0 13.82 10.05 27.06 11.45 29.02 1.39 1.96 19.8 30.23 47.88 42.39 5.22 2.26 10.56 4.23 15.99 5.91a38.45 38.45 0 0 0 17.67 1.1c5.39-.81 16.65-6.79 18.94-13.34 2.29-6.56 2.33-12.18 1.64-13.34-.67-1.19-2.41-1.89-5.31-3.29" style="fill-rule:evenodd;clip-rule:evenodd;fill:#25d366"/></svg>